<svg xmlns="http://www.w3.org/2000/svg" width="40" height="40" viewBox="0 0 40 40">
  <path fill="#000000" d="M40,20 C45.3043298,20 50.3914081,22.1071368 54.1421356,25.8578644 C57.8928632,29.6085919 60,34.6956702 60,40 C60,51.045695 51.045695,60 40,60 C28.954305,60 20,51.045695 20,40 C20,28.954305 28.954305,20 40,20 Z M40,22 C30.0634437,22.0110223 22.0110223,30.0634437 22,40 C22,49.9411255 30.0588745,58 40,58 C49.9411255,58 58,49.9411255 58,40 C58,30.0588745 49.9411255,22 40,22 Z M42.2,34.1001499 C42.464524,34.1001499 42.7175003,34.2085141 42.9,34.4 L47.6050303,39.10373 C47.8159127,39.2642117 47.9611195,39.5065542 47.9932723,39.7833789 L48,39.9 L47.9962276,40.0066255 C47.99923,40.0375222 48.0007523,40.0686797 48.0007523,40.1 C48.0007523,40.3647068 47.8920153,40.6177918 47.7,40.8 L42.9,45.6 C42.7175003,45.7914859 42.464524,45.8998501 42.2,45.8998501 C41.9795633,45.8998501 41.7671459,45.8245972 41.5968501,45.6886993 L41.5,45.6 C41.3085141,45.4175003 41.2001499,45.164524 41.2001499,44.9 C41.2001499,44.635476 41.3085141,44.3824997 41.5,44.2 L44.8,40.899 L33,40.9 C32.4871642,40.9 32.0644928,40.5139598 32.0067277,40.0166211 L32,39.9 C32,39.3477153 32.4477153,38.9 33,38.9 L44.599,38.899 L41.5,35.8 C41.3085141,35.6175003 41.2001499,35.364524 41.2001499,35.1 C41.2001499,34.8795633 41.2754028,34.6671459 41.4113007,34.4968501 L41.5,34.4 C41.6824997,34.2085141 41.935476,34.1001499 42.2,34.1001499 Z" transform="translate(-20 -20)"/>
</svg>
