<?xml version="1.0" encoding="utf-8"?>
<!-- Generator: Adobe Illustrator 27.0.0, SVG Export Plug-In . SVG Version: 6.00 Build 0)  -->
<svg version="1.1" id="Layer_1" xmlns="http://www.w3.org/2000/svg" xmlns:xlink="http://www.w3.org/1999/xlink" x="0px" y="0px"
	 width="215px" height="57px" viewBox="0 0 215 57" style="enable-background:new 0 0 215 57;" xml:space="preserve">
<style type="text/css">
	.st0{display:none;}
	.st1{display:inline;}
	.st2{fill:#FFFFFF;}
	.st3{fill:#929497;}
	.st4{fill:#5FC323;}
	.st5{fill:none;}
	.st6{enable-background:new    ;}
	.st7{fill:#231F20;}
	.st8{fill:none;stroke:#231F20;stroke-width:0.6111;stroke-miterlimit:10;}
</style>
<g class="st0">
	<path class="st1" d="M139.1,41.4H137v-1h5.3v1h-2.1v5.2H139L139.1,41.4L139.1,41.4z M143.4,46.6v-3.5c0.2-0.1,0.5-0.2,0.8-0.2
		c0.2,0,0.5,0,0.7,0.1l0.3-0.9c-0.3-0.1-0.6-0.1-1-0.1c-0.9,0-1.6,0.3-1.9,0.6v4C142.3,46.6,143.4,46.6,143.4,46.6z M149,42.2v3.5
		c-0.3,0.1-0.6,0.2-0.9,0.2c-0.9,0-1.1-0.4-1.1-1.2v-2.5h-1.1V45c0,1.1,0.6,1.8,2.1,1.8c1,0,1.7-0.3,2.2-0.5v-4.1H149z M151.1,46.1
		c0,0,0.6,0.7,1.8,0.7c1.1,0,1.7-0.6,1.7-1.4c0-1.5-2.2-1.4-2.2-2c0-0.3,0.3-0.4,0.6-0.4c0.7,0,1.1,0.4,1.1,0.4l0.4-0.8
		c0,0-0.5-0.5-1.5-0.5s-1.7,0.5-1.7,1.3c0,1.5,2.2,1.4,2.2,2c0,0.3-0.3,0.4-0.6,0.4c-0.7,0-1.2-0.5-1.2-0.5L151.1,46.1z M155.5,45
		c0,1.5,1.3,1.7,1.9,1.7c0.2,0,0.3,0,0.3,0v-1c0,0-0.1,0-0.2,0c-0.3,0-0.9-0.1-0.9-0.9v-1.7h1v-1h-1v-1.3h-1.1
		C155.5,40.8,155.5,45,155.5,45z M165.6,46.6v-3.5c0.2-0.1,0.5-0.2,0.8-0.2c0.2,0,0.5,0,0.7,0.1l0.3-0.9c-0.3-0.1-0.6-0.1-1-0.1
		c-0.9,0-1.6,0.3-1.9,0.6v4C164.5,46.6,165.6,46.6,165.6,46.6z M169.9,42.1c-1.5,0-2.4,1.1-2.4,2.3c0,1.3,0.9,2.3,2.4,2.3
		c1.2,0,1.8-0.7,1.8-0.7l-0.4-0.8c0,0-0.6,0.6-1.3,0.6c-0.8,0-1.4-0.6-1.4-1.4c0-0.8,0.5-1.4,1.3-1.4c0.7,0,1.2,0.5,1.2,0.5l0.5-0.8
		C171.6,42.7,171.1,42.1,169.9,42.1 M162.1,45H160l-0.6,1.6h-1.2l2.2-6.1h1.2l2.2,6.1h-1.2L162.1,45z M161.8,44.1l-0.7-2l-0.7,2
		H161.8z"/>
</g>
<g>
	<path class="st2" d="M42.6,55.7c-9.5,0-17.5-6.4-19.7-15.5v-0.1L21.2,40c-5.9-0.3-10.4-5.1-10.4-11V1.3h186.5
		c3.7,0,6.8,3.1,6.8,6.8v41.2c0,3.7-3.1,6.8-6.8,6.8L42.6,55.7L42.6,55.7z"/>
	<path class="st3" d="M197.2,1.4c3.6,0,6.5,2.9,6.5,6.5v41.2c0,3.6-2.9,6.5-6.5,6.5H42.6h-0.1l0,0c-9.3,0-17.3-6.4-19.3-15.3
		L23,39.9h-0.4l-1.5-0.1c-5.8-0.3-10.2-5-10.2-10.7V1.4H197.2 M197.2,1H10.5v28c0,6,4.6,10.9,10.6,11.3l1.5,0.1
		c2,9,10.1,15.6,19.8,15.6l0,0l0,0h154.6c3.8,0,6.9-3.1,6.9-6.9V7.8C204.1,4.1,201.2,1,197.2,1L197.2,1z"/>
</g>
<g>
	<path class="st4" d="M16.2,6.8V29c0,3.6,2.8,6.4,6.3,6.7c-0.1-9.6,6.7-18,16.2-19.8c1.2-0.3,2.3-0.4,3.5-0.4
		c9.6,0,17.8,6.9,19.4,16.2c0.3,1.3,0.4,2.6,0.3,3.8c3.5-0.3,6.3-3.1,6.3-6.7V6.8H16.2z"/>
	<path d="M35.9,35.2c0-3.6,2.8-6.4,6.4-6.4s6.4,2.8,6.4,6.4H35.9z M27.1,35.2c0,8.3,6.8,15.1,15.1,15.1c4.1,0,7.8-1.5,10.6-4.3
		l-3.1-3.1c-2,2-4.7,3.2-7.5,3.2c-5.9,0-10.7-4.7-10.7-10.7c0-5.9,4.7-10.7,10.7-10.7c5.9,0,10.7,4.7,10.7,10.7h4.2
		c0-8.3-6.8-15.1-15.1-15.1C33.9,20.1,27.1,26.8,27.1,35.2"/>
</g>
<rect x="69.8" y="24.4" class="st5" width="104.2" height="15.1"/>
<g class="st6">
	<path class="st7" d="M75.3,34.9v-9.2h2.6c0.5,0,1,0,1.4,0.1s0.8,0.3,1,0.5c0.3,0.3,0.5,0.5,0.6,0.9c0.1,0.4,0.3,0.8,0.3,1.3
		s-0.1,0.9-0.3,1.3c-0.1,0.4-0.4,0.6-0.6,0.9c-0.3,0.3-0.6,0.4-1,0.5c-0.4,0.1-0.9,0.1-1.4,0.1h-1.5V35h-1V34.9z M76.5,30.3h1.4
		c0.8,0,1.4-0.1,1.8-0.5c0.4-0.3,0.6-0.8,0.6-1.4c0-0.6-0.3-1.2-0.6-1.4c-0.4-0.3-1-0.4-1.8-0.4h-1.3v3.7H76.5z"/>
	<path class="st7" d="M83.1,34.9v-6.8H84l0.1,1.3l0,0c0.3-0.4,0.5-0.8,0.9-1c0.4-0.3,0.6-0.4,1-0.4c0.3,0,0.5,0,0.8,0.1l-0.3,1
		c-0.1,0-0.3-0.1-0.3-0.1c-0.1,0-0.3,0-0.4,0c-0.3,0-0.6,0.1-0.9,0.4c-0.3,0.3-0.6,0.6-0.8,1.3V35h-1.2V34.9z"/>
	<path class="st7" d="M88.5,26.7c-0.3,0-0.4-0.1-0.5-0.3c-0.1-0.1-0.3-0.4-0.3-0.5c0-0.3,0.1-0.4,0.3-0.5c0.1-0.1,0.4-0.3,0.5-0.3
		c0.1,0,0.4,0.1,0.5,0.3c0.1,0.1,0.3,0.3,0.3,0.5c0,0.3-0.1,0.4-0.3,0.5C88.9,26.6,88.8,26.7,88.5,26.7z M88,34.9v-6.8h1.2v6.8H88z"
		/>
	<path class="st7" d="M92.8,34.9l-2.4-6.8h1.2l1.3,3.8c0.1,0.4,0.3,0.6,0.3,1c0.1,0.4,0.3,0.6,0.3,1l0,0c0.1-0.4,0.3-0.6,0.3-1
		c0.1-0.4,0.3-0.6,0.3-1l1.3-3.8h1.2l-2.2,6.8H92.8z"/>
	<path class="st7" d="M99.2,35c-0.5,0-1-0.1-1.4-0.5c-0.4-0.4-0.5-0.8-0.5-1.4c0-0.8,0.4-1.3,1-1.7c0.6-0.4,1.7-0.6,3.2-0.9
		c0-0.3,0-0.4,0-0.6c0-0.3-0.1-0.4-0.3-0.5c-0.1-0.1-0.3-0.3-0.4-0.4c-0.4-0.1-0.6-0.1-0.9-0.1c-0.4,0-0.8,0.1-1.2,0.3
		c-0.4,0.1-0.6,0.3-0.9,0.5l-0.4-0.8c0.3-0.3,0.6-0.4,1.2-0.6c0.5-0.3,0.9-0.3,1.5-0.3c0.8,0,1.4,0.3,1.8,0.8c0.4,0.5,0.5,1.2,0.5,2
		V35h-0.9l-0.1-0.8l0,0c-0.4,0.3-0.6,0.5-1,0.6C100,35,99.6,35,99.2,35z M99.5,34.1c0.4,0,0.6-0.1,0.9-0.3c0.3-0.1,0.6-0.4,0.9-0.6
		v-1.9c-0.5,0.1-1,0.1-1.4,0.3c-0.4,0.1-0.6,0.3-0.9,0.4c-0.3,0.1-0.4,0.3-0.5,0.5c-0.1,0.1-0.1,0.4-0.1,0.6c0,0.4,0.1,0.6,0.4,0.9
		C98.9,34,99.2,34.1,99.5,34.1z"/>
	<path class="st7" d="M107.3,35c-0.4,0-0.9-0.1-1.3-0.3c-0.4-0.1-0.8-0.4-1-0.6c-0.3-0.3-0.5-0.6-0.6-1.2c-0.1-0.4-0.3-0.9-0.3-1.5
		c0-0.5,0.1-1,0.3-1.5c0.1-0.4,0.4-0.8,0.8-1.2c0.3-0.3,0.6-0.5,1-0.6c0.4-0.1,0.8-0.3,1.3-0.3c0.4,0,0.8,0.1,1.2,0.3
		c0.3,0.1,0.6,0.4,0.9,0.5l-0.6,0.8c-0.3-0.1-0.4-0.4-0.6-0.4c-0.3-0.1-0.5-0.1-0.8-0.1c-0.3,0-0.6,0-0.9,0.1
		c-0.3,0.1-0.5,0.3-0.6,0.5c-0.1,0.3-0.4,0.5-0.4,0.9c-0.1,0.4-0.1,0.6-0.1,1s0,0.8,0.1,1c0.1,0.3,0.3,0.6,0.4,0.8
		c0.1,0.3,0.4,0.4,0.6,0.5c0.3,0.1,0.5,0.1,0.9,0.1c0.3,0,0.6-0.1,0.9-0.3c0.3-0.1,0.5-0.3,0.8-0.5l0.5,0.8c-0.3,0.3-0.6,0.5-1,0.6
		S107.8,35,107.3,35z"/>
	<path class="st7" d="M111.6,26.7c-0.3,0-0.4-0.1-0.5-0.3c-0.1-0.1-0.3-0.3-0.3-0.5c0-0.3,0.1-0.4,0.3-0.5c0.1-0.1,0.4-0.3,0.5-0.3
		s0.4,0.1,0.5,0.3s0.3,0.3,0.3,0.5c0,0.3-0.1,0.4-0.3,0.5C112,26.6,111.9,26.7,111.6,26.7z M111,34.9v-6.8h1.2v6.8H111z"/>
	<path class="st7" d="M116.8,35c-0.9,0-1.5-0.3-2-0.9c-0.5-0.6-0.8-1.5-0.8-2.7c0-0.5,0.1-1,0.3-1.5c0.1-0.4,0.4-0.8,0.6-1.2
		c0.3-0.3,0.6-0.5,0.9-0.8c0.4-0.1,0.8-0.3,1.2-0.3c0.4,0,0.8,0.1,1,0.3c0.3,0.1,0.6,0.4,0.9,0.6v-1.2v-2.7h1.2v10h-0.9l-0.1-0.8
		l0,0c-0.3,0.3-0.6,0.5-0.9,0.6C117.5,35,117.1,35,116.8,35z M117,34.1c0.3,0,0.6-0.1,0.9-0.3c0.3-0.1,0.5-0.4,0.9-0.8v-3.6
		c-0.3-0.3-0.5-0.5-0.8-0.5c-0.4-0.1-0.6-0.1-0.9-0.1c-0.3,0-0.5,0.1-0.8,0.1c-0.3,0-0.4,0.3-0.6,0.5c-0.1,0.3-0.3,0.5-0.4,0.8
		c-0.1,0.3-0.1,0.6-0.1,1c0,0.8,0.1,1.4,0.5,1.9C116,33.9,116.4,34.1,117,34.1z"/>
	<path class="st7" d="M123.8,35c-0.5,0-1-0.1-1.4-0.5c-0.4-0.4-0.5-0.8-0.5-1.4c0-0.8,0.4-1.3,1-1.7c0.6-0.4,1.7-0.6,3.2-0.9
		c0-0.3,0-0.4,0-0.6c0-0.3-0.1-0.4-0.3-0.5c-0.1-0.1-0.3-0.3-0.4-0.4c-0.4-0.1-0.6-0.1-0.9-0.1c-0.4,0-0.8,0.1-1.2,0.3
		c-0.4,0.1-0.6,0.3-0.9,0.5l-0.4-0.8c0.3-0.3,0.6-0.4,1.2-0.6c0.5-0.3,0.9-0.3,1.5-0.3c0.8,0,1.4,0.3,1.8,0.8c0.4,0.5,0.5,1.2,0.5,2
		V35h-0.9l-0.1-0.9l0,0c-0.4,0.3-0.6,0.5-1,0.6C124.6,35,124.2,35,123.8,35z M124.2,34.1c0.4,0,0.6-0.1,0.9-0.3
		c0.3-0.1,0.6-0.4,0.9-0.6v-1.9c-0.5,0.1-1,0.1-1.4,0.3c-0.4,0.1-0.6,0.3-0.9,0.4c-0.3,0.1-0.4,0.3-0.5,0.5
		c-0.1,0.1-0.1,0.4-0.1,0.6c0,0.4,0.1,0.6,0.4,0.9C123.5,34,123.8,34.1,124.2,34.1z"/>
	<path class="st7" d="M131.6,35c-0.9,0-1.5-0.3-2-0.9c-0.5-0.6-0.8-1.5-0.8-2.7c0-0.5,0.1-1,0.3-1.5c0.1-0.4,0.4-0.8,0.6-1.2
		c0.3-0.4,0.6-0.5,0.9-0.8c0.4-0.1,0.8-0.3,1.2-0.3c0.4,0,0.8,0.1,1,0.3c0.3,0.1,0.6,0.4,0.9,0.6v-1.2v-2.7h1.2v10h-1l-0.1-0.8l0,0
		c-0.3,0.3-0.6,0.5-0.9,0.6C132.4,35,132,35,131.6,35z M131.9,34.1c0.3,0,0.6-0.1,0.9-0.3c0.3-0.1,0.5-0.4,0.9-0.8v-3.6
		c-0.3-0.3-0.5-0.5-0.9-0.5c-0.3-0.1-0.5-0.1-0.9-0.1c-0.3,0-0.5,0.1-0.8,0.1s-0.4,0.3-0.6,0.5c-0.1,0.3-0.3,0.5-0.4,0.8
		c0,0.4-0.1,0.8-0.1,1.2c0,0.8,0.1,1.4,0.5,1.9C130.8,33.9,131.2,34.1,131.9,34.1z"/>
	<path class="st7" d="M141.6,34.9l-2.9-9.2h1.3l1.4,5c0.1,0.5,0.3,1,0.4,1.5c0.1,0.5,0.3,1,0.5,1.5l0,0c0.1-0.5,0.3-1,0.4-1.5
		c0.1-0.5,0.3-1,0.4-1.5l1.4-5h1.2l-2.9,9.2H141.6z"/>
	<path class="st7" d="M149.5,35c-0.5,0-0.9-0.1-1.3-0.3c-0.4-0.1-0.8-0.4-1-0.6c-0.3-0.3-0.5-0.6-0.6-1.2c-0.1-0.4-0.3-0.9-0.3-1.5
		s0.1-1,0.3-1.5c0.1-0.4,0.4-0.8,0.6-1.2c0.3-0.3,0.6-0.5,1-0.8c0.4-0.1,0.8-0.3,1.2-0.3c0.4,0,0.8,0.1,1.2,0.3
		c0.4,0.1,0.6,0.4,0.9,0.6c0.3,0.3,0.4,0.6,0.5,1c0.1,0.4,0.1,0.9,0.1,1.3c0,0.1,0,0.3,0,0.4c0,0.1,0,0.3,0,0.3h-4.6
		c0,0.8,0.3,1.3,0.6,1.8c0.4,0.5,0.9,0.6,1.5,0.6c0.4,0,0.6,0,0.9-0.1c0.3-0.1,0.5-0.3,0.8-0.4l0.4,0.8c-0.3,0.1-0.6,0.4-1,0.5
		C150.4,35,150,35,149.5,35z M147.5,30.9h3.6c0-0.6-0.1-1.3-0.4-1.5c-0.3-0.4-0.8-0.5-1.3-0.5c-0.3,0-0.5,0-0.6,0.1
		c-0.3,0.1-0.4,0.3-0.6,0.4c-0.1,0.1-0.4,0.4-0.4,0.6C147.7,30.3,147.5,30.5,147.5,30.9z"/>
	<path class="st7" d="M153.7,34.9v-6.8h0.9l0.1,1.3l0,0c0.3-0.4,0.5-0.8,0.9-1c0.4-0.3,0.6-0.4,1-0.4c0.3,0,0.5,0,0.8,0.1l-0.3,1
		c-0.1,0-0.3-0.1-0.3-0.1c-0.1,0-0.3,0-0.4,0c-0.3,0-0.6,0.1-0.9,0.4c-0.3,0.3-0.6,0.6-0.8,1.3V35h-1.2V34.9z"/>
	<path class="st7" d="M159.1,26.7c-0.3,0-0.4-0.1-0.5-0.3c-0.1-0.1-0.3-0.3-0.3-0.5c0-0.3,0.1-0.4,0.3-0.5s0.4-0.3,0.5-0.3
		c0.1,0,0.4,0.1,0.5,0.3c0.1,0.1,0.3,0.3,0.3,0.5c0,0.3-0.1,0.4-0.3,0.5C159.6,26.6,159.4,26.7,159.1,26.7z M158.6,34.9v-6.8h1.2
		v6.8H158.6z"/>
	<path class="st7" d="M162.2,34.9V29h-0.9v-0.9l0.9-0.1v-1c0-0.8,0.1-1.3,0.5-1.7s0.8-0.6,1.5-0.6c0.3,0,0.4,0,0.6,0
		c0.1,0,0.4,0.1,0.5,0.1l-0.3,0.9c-0.3-0.1-0.5-0.1-0.8-0.1c-0.6,0-0.9,0.4-0.9,1.3v1h1.4v0.9h-1.4v5.9h-1.3V34.9z"/>
	<path class="st7" d="M166.6,26.7c-0.3,0-0.4-0.1-0.5-0.3c-0.1-0.1-0.3-0.3-0.3-0.5c0-0.3,0.1-0.4,0.3-0.5c0.1-0.1,0.4-0.3,0.5-0.3
		c0.1,0,0.4,0.1,0.5,0.3s0.3,0.3,0.3,0.5c0,0.3-0.1,0.4-0.3,0.5C167,26.6,166.9,26.7,166.6,26.7z M166.1,34.9v-6.8h1.2v6.8H166.1z"
		/>
	<path class="st7" d="M172.1,35c-0.4,0-0.9-0.1-1.3-0.3c-0.4-0.1-0.8-0.4-1-0.6c-0.3-0.3-0.5-0.6-0.6-1.2c-0.1-0.4-0.3-0.9-0.3-1.5
		c0-0.5,0.1-1,0.3-1.5c0.1-0.4,0.4-0.8,0.8-1.2c0.3-0.3,0.6-0.5,1-0.6c0.4-0.1,0.8-0.3,1.3-0.3c0.4,0,0.8,0.1,1.2,0.3
		c0.3,0.1,0.6,0.4,0.9,0.5l-0.6,0.8c-0.3-0.1-0.4-0.4-0.6-0.4c-0.3-0.1-0.5-0.1-0.8-0.1c-0.3,0-0.6,0-0.9,0.1
		c-0.3,0.1-0.5,0.3-0.6,0.5c-0.1,0.3-0.4,0.5-0.4,0.9c-0.1,0.4-0.1,0.6-0.1,1c0,0.4,0,0.8,0.1,1c0.1,0.3,0.3,0.6,0.4,0.8
		c0.1,0.3,0.4,0.4,0.6,0.5c0.3,0.1,0.5,0.1,0.9,0.1c0.3,0,0.6-0.1,0.9-0.3s0.5-0.3,0.8-0.5l0.5,0.8c-0.3,0.3-0.6,0.5-1,0.6
		S172.7,35,172.1,35z"/>
	<path class="st7" d="M177.3,35c-0.5,0-1-0.1-1.4-0.5c-0.4-0.4-0.5-0.8-0.5-1.4c0-0.8,0.4-1.3,1-1.7c0.6-0.4,1.7-0.6,3.2-0.9
		c0-0.3,0-0.4,0-0.6c0-0.3-0.1-0.4-0.3-0.5c-0.1-0.1-0.3-0.3-0.4-0.4c-0.1-0.1-0.4-0.1-0.6-0.1c-0.4,0-0.8,0.1-1.2,0.3
		c-0.4,0.1-0.6,0.3-0.9,0.5l-0.4-0.8c0.3-0.3,0.6-0.4,1.2-0.6c0.5-0.3,1-0.3,1.5-0.3c0.8,0,1.4,0.3,1.8,0.8c0.4,0.5,0.5,1.2,0.5,2
		V35H180l-0.1-0.8l0,0c-0.4,0.3-0.6,0.5-1,0.6C178.2,35,177.8,35,177.3,35z M177.6,34.1c0.4,0,0.6-0.1,0.9-0.3
		c0.3-0.1,0.6-0.4,0.9-0.6v-1.9c-0.5,0.1-1,0.1-1.4,0.3c-0.4,0.1-0.6,0.3-0.9,0.4c-0.3,0.1-0.4,0.3-0.5,0.5
		c-0.1,0.1-0.1,0.4-0.1,0.6c0,0.4,0.1,0.6,0.4,0.9C177,34,177.3,34.1,177.6,34.1z"/>
	<path class="st7" d="M185.1,35c-0.9,0-1.5-0.3-2-0.9c-0.5-0.6-0.8-1.5-0.8-2.7c0-0.5,0.1-1,0.3-1.5c0.1-0.4,0.4-0.8,0.6-1.2
		c0.3-0.3,0.6-0.5,0.9-0.8c0.4-0.1,0.8-0.3,1.2-0.3c0.4,0,0.8,0.1,1,0.3c0.3,0.1,0.6,0.4,0.9,0.6v-1.2v-2.7h1.2v10h-0.9l-0.1-0.8
		l0,0c-0.3,0.3-0.6,0.5-0.9,0.6C185.8,35,185.5,35,185.1,35z M185.3,34.1c0.3,0,0.6-0.1,0.9-0.3c0.3-0.1,0.5-0.4,0.9-0.8v-3.6
		c-0.3-0.3-0.5-0.5-0.8-0.5c-0.3-0.1-0.5-0.1-0.8-0.1c-0.3,0-0.5,0.1-0.8,0.1s-0.4,0.3-0.6,0.5c-0.1,0.3-0.3,0.5-0.4,0.8
		c-0.1,0.3-0.1,0.6-0.1,1c0,0.8,0.1,1.4,0.5,1.9C184.3,33.9,184.8,34.1,185.3,34.1z"/>
	<path class="st7" d="M192.1,35c-0.5,0-1-0.1-1.4-0.5s-0.5-0.8-0.5-1.4c0-0.8,0.4-1.3,1-1.7c0.6-0.4,1.7-0.6,3.2-0.9
		c0-0.3,0-0.4,0-0.6c0-0.3-0.1-0.4-0.3-0.5s-0.3-0.3-0.4-0.4c-0.1-0.1-0.4-0.1-0.6-0.1c-0.4,0-0.8,0.1-1.2,0.3
		c-0.4,0.1-0.6,0.3-0.9,0.5l-0.4-0.8c0.3-0.3,0.6-0.4,1.2-0.6c0.5-0.3,0.9-0.3,1.5-0.3c0.8,0,1.4,0.3,1.8,0.8c0.4,0.5,0.5,1.2,0.5,2
		V35h-0.9l-0.1-0.8l0,0c-0.4,0.3-0.6,0.5-1,0.6C192.9,35,192.5,35,192.1,35z M192.5,34.1c0.4,0,0.6-0.1,0.9-0.3
		c0.3-0.1,0.6-0.4,0.9-0.6v-1.9c-0.5,0.1-1,0.1-1.4,0.3c-0.4,0.1-0.6,0.3-0.9,0.4c-0.3,0.1-0.4,0.3-0.5,0.5
		c-0.1,0.1-0.1,0.4-0.1,0.6c0,0.4,0.1,0.6,0.4,0.9C191.8,34,192.1,34.1,192.5,34.1z"/>
</g>
<g>
	<g>
		<path d="M108.3,9.3v10.4h-2.8V9.3h-4.1V6.8h10.7v2.7L108.3,9.3L108.3,9.3z"/>
		<path d="M121.6,19.7l-2.8-4.1h-2.2v4.1h-2.9V6.8h6c3.1,0,4.9,1.5,4.9,4.2l0,0c0,2-1.2,3.5-2.8,4.1l3.2,4.6
			C125,19.7,121.6,19.7,121.6,19.7z M121.6,11.1c0-1.3-0.9-1.8-2.2-1.8h-2.8v3.8h2.9C120.9,13.2,121.6,12.3,121.6,11.1L121.6,11.1z"
			/>
		<path d="M132.1,19.9c-3.6,0-5.6-1.9-5.6-5.8V6.8h2.8V14c0,2,1.2,3.2,2.8,3.2c1.7,0,2.8-1.2,2.8-3.2V6.8h2.8V14
			C137.9,18,135.7,19.9,132.1,19.9z"/>
		<path d="M145.2,19.9c-1.9,0-4-0.8-5.5-2l1.7-2c1.3,1,2.4,1.5,4,1.5c1.3,0,1.8-0.5,1.8-1.3l0,0c0-0.8-0.5-1.2-2.6-1.7
			c-2.6-0.6-4.2-1.4-4.2-4.1l0,0c0-2.3,1.9-4,4.5-4c1.9,0,3.6,0.6,4.9,1.7l-1.4,2.3c-1.2-0.9-2.3-1.3-3.5-1.3s-1.7,0.5-1.7,1.2l0,0
			c0,0.9,0.6,1.2,2.8,1.7c2.7,0.8,4.1,1.5,4.1,4l0,0C149.9,18.5,148,19.9,145.2,19.9z"/>
		<path d="M157.1,9.3v10.4h-2.8V9.3h-4V6.8H161v2.7L157.1,9.3L157.1,9.3z"/>
		<path d="M170.1,15.8h-6.9c0.3,1.3,1.3,1.9,2.4,1.9c1,0,1.5-0.3,2.4-1l1.5,1.4c-1,1.2-2.3,1.8-4.1,1.8c-3.1,0-5.2-2-5.2-5.1l0,0
			c0-2.8,2-5.1,4.9-5.1c3.3,0,4.9,2.6,4.9,5.4l0,0C170.1,15.3,170.1,15.5,170.1,15.8z M165.1,11.9c-1.2,0-1.9,0.9-2.2,2h4.2
			C167.2,12.8,166.4,11.9,165.1,11.9z"/>
	</g>
</g>
<line class="st8" x1="72.5" y1="39.9" x2="197.6" y2="39.9"/>
<g>
	<g class="st6">
		<path d="M89,50h-2.4v-0.6h0.8v-4.9h-0.8v-0.6H89v0.6h-0.8v4.9H89V50z"/>
		<path d="M97.1,50h-0.8v-2.6c0-0.3,0-0.4,0-0.5c0-0.1,0-0.4-0.1-0.4c0-0.1-0.1-0.3-0.3-0.3s-0.3-0.1-0.5-0.1c-0.3,0-0.4,0-0.6,0.1
			c-0.3,0.1-0.4,0.3-0.6,0.4c0,0,0,0.1,0,0.3s0,0.1,0,0.3v2.9h-0.8v-2.6c0-0.3,0-0.4,0-0.6c0-0.1,0-0.4-0.1-0.4
			c0-0.1-0.1-0.3-0.3-0.3c-0.1,0-0.3-0.1-0.5-0.1c-0.3,0-0.4,0-0.6,0.1c-0.3,0.1-0.4,0.3-0.6,0.4v3.5h-0.8v-4.6h0.8V46
			c0.3-0.3,0.5-0.4,0.8-0.5c0.3-0.1,0.5-0.1,0.8-0.1c0.3,0,0.6,0.1,0.8,0.3c0.3,0.1,0.4,0.3,0.5,0.5c0.3-0.3,0.6-0.5,0.9-0.5
			c0.3-0.1,0.5-0.1,0.8-0.1c0.5,0,0.9,0.1,1.2,0.5c0.3,0.3,0.4,0.8,0.4,1.3V50H97.1z"/>
		<path d="M102.7,47.7c0,0.4,0,0.8-0.1,1c-0.1,0.3-0.3,0.5-0.5,0.8c-0.1,0.3-0.4,0.4-0.6,0.5c-0.3,0.1-0.5,0.1-0.8,0.1
			c-0.3,0-0.5,0-0.6-0.1c-0.3,0-0.4-0.1-0.6-0.3v1.9h-0.8v-6.3h0.8v0.5c0.3-0.1,0.4-0.3,0.6-0.4s0.5-0.1,0.8-0.1
			c0.5,0,1,0.3,1.3,0.6C102.4,46.4,102.7,46.9,102.7,47.7z M101.8,47.7c0-0.5-0.1-1-0.3-1.3c-0.1-0.3-0.5-0.4-0.9-0.4
			c-0.3,0-0.4,0-0.6,0.1c-0.3,0.1-0.4,0.3-0.6,0.4v2.6c0.3,0.1,0.4,0.1,0.5,0.3c0.1,0,0.4,0,0.5,0c0.4,0,0.8-0.1,1-0.4
			C101.7,48.7,101.8,48.3,101.8,47.7z"/>
		<path d="M107.7,50h-0.8v-0.5c-0.3,0.3-0.5,0.4-0.8,0.5c-0.3,0.1-0.5,0.1-0.8,0.1c-0.5,0-0.9-0.1-1.2-0.4c-0.3-0.3-0.4-0.8-0.4-1.3
			v-2.9h0.8v2.6c0,0.3,0,0.4,0,0.6s0.1,0.3,0.1,0.4c0.1,0.1,0.1,0.3,0.3,0.3s0.3,0.1,0.5,0.1c0.3,0,0.4,0,0.6-0.1
			c0.3-0.1,0.5-0.3,0.6-0.4v-3.5h0.8V50H107.7z"/>
		<path d="M110,50h-0.8v-6.4h0.8V50z"/>
		<path d="M114.7,48.7c0,0.4-0.1,0.8-0.5,1c-0.4,0.3-0.8,0.4-1.4,0.4c-0.4,0-0.6,0-0.9-0.1c-0.3-0.1-0.5-0.1-0.8-0.3v-0.9l0,0
			c0.3,0.1,0.5,0.4,0.8,0.4c0.3,0.1,0.6,0.1,0.9,0.1c0.4,0,0.6,0,0.8-0.1c0.1-0.1,0.3-0.3,0.3-0.5c0-0.1,0-0.3-0.1-0.4
			c-0.1-0.1-0.3-0.1-0.6-0.3c-0.1,0-0.3,0-0.4-0.1c-0.1,0-0.4-0.1-0.5-0.1c-0.4-0.1-0.6-0.3-0.9-0.5c-0.3-0.3-0.3-0.5-0.3-0.8
			c0-0.1,0-0.4,0.1-0.5c0.1-0.1,0.3-0.3,0.4-0.5c0.1-0.1,0.4-0.3,0.6-0.3c0.3-0.1,0.5-0.1,0.8-0.1c0.3,0,0.5,0,0.9,0.1
			c0.3,0.1,0.5,0.1,0.6,0.3v0.8l0,0c-0.3-0.1-0.4-0.3-0.8-0.4c-0.3-0.1-0.5-0.1-0.8-0.1c-0.3,0-0.5,0-0.8,0.1
			c-0.1,0.4-0.1,0.5-0.1,0.8c0,0.1,0,0.4,0.1,0.4c0.1,0.1,0.3,0.1,0.5,0.3c0.1,0,0.3,0.1,0.5,0.1c0.1,0,0.4,0,0.4,0.1
			c0.4,0.1,0.6,0.3,0.9,0.4C114.7,48.1,114.7,48.3,114.7,48.7z"/>
		<path d="M119.5,50h-0.8v-0.5c-0.1,0-0.1,0.1-0.3,0.3c-0.1,0.1-0.3,0.1-0.4,0.3c-0.1,0-0.3,0.1-0.4,0.1c-0.1,0-0.4,0-0.6,0
			c-0.4,0-0.8-0.1-1-0.4c-0.3-0.3-0.4-0.6-0.4-1s0.1-0.6,0.3-0.9c0.1-0.3,0.4-0.4,0.6-0.5c0.3-0.1,0.6-0.3,1-0.3
			c0.4,0,0.8-0.1,1.3-0.1v-0.1c0-0.1,0-0.4-0.1-0.4c0-0.1-0.1-0.3-0.3-0.3c-0.1,0-0.3-0.1-0.4-0.1c-0.1,0-0.3,0-0.5,0
			s-0.4,0-0.6,0.1c-0.3,0-0.5,0.1-0.8,0.3l0,0v-0.9c0.1,0,0.4-0.1,0.6-0.1c0.3,0,0.5-0.1,0.9-0.1c0.4,0,0.6,0,0.9,0.1
			c0.3,0.1,0.5,0.1,0.6,0.3c0.1,0.1,0.3,0.3,0.4,0.5c0.1,0.3,0.1,0.5,0.1,0.8V50H119.5z M118.7,48.8v-1.3c-0.3,0-0.5,0-0.9,0
			c-0.4,0-0.5,0.1-0.8,0.1c-0.3,0-0.4,0.1-0.5,0.3c-0.1,0.1-0.3,0.3-0.3,0.5c0,0.3,0.1,0.5,0.3,0.6s0.4,0.3,0.8,0.3
			c0.3,0,0.5,0,0.8-0.1C118.3,49.2,118.4,49.1,118.7,48.8z"/>
		<path d="M124.7,50h-0.8v-0.5c-0.3,0.1-0.5,0.4-0.6,0.5c-0.3,0.1-0.5,0.1-0.8,0.1c-0.5,0-1-0.3-1.3-0.6c-0.3-0.4-0.5-1-0.5-1.8
			c0-0.4,0-0.8,0.1-1c0.1-0.3,0.3-0.5,0.5-0.8c0.1-0.3,0.4-0.4,0.6-0.5c0.3-0.1,0.5-0.1,0.8-0.1c0.3,0,0.5,0,0.6,0.1
			c0.1,0,0.4,0.1,0.6,0.3v-2h0.8V50H124.7z M123.9,48.8v-2.7c-0.3-0.1-0.4-0.1-0.5-0.3c-0.1,0-0.4,0-0.5,0c-0.4,0-0.8,0.1-1,0.5
			c-0.3,0.3-0.4,0.8-0.4,1.3s0.1,1,0.3,1.3c0.1,0.3,0.5,0.4,0.9,0.4c0.3,0,0.4,0,0.6-0.1C123.5,49.1,123.7,49.1,123.9,48.8z"/>
		<path d="M130.1,47.7c0,0.8-0.1,1.3-0.6,1.8c-0.4,0.4-0.9,0.6-1.5,0.6c-0.6,0-1.2-0.3-1.5-0.6c-0.4-0.4-0.5-1-0.5-1.8
			c0-0.8,0.3-1.3,0.5-1.8s0.9-0.6,1.5-0.6c0.6,0,1.2,0.3,1.5,0.6C129.9,46.4,130.1,47,130.1,47.7z M129.3,47.7c0-0.6-0.1-1-0.4-1.3
			c-0.3-0.3-0.5-0.4-1-0.4c-0.4,0-0.8,0.1-1,0.4c-0.3,0.3-0.4,0.8-0.4,1.3c0,0.6,0.1,1,0.4,1.3c0.3,0.3,0.5,0.4,1,0.4
			c0.4,0,0.8-0.1,1-0.4C129.2,48.7,129.3,48.3,129.3,47.7z"/>
		<path d="M138.3,47.7c0,0.4,0,0.8-0.1,1c-0.1,0.3-0.3,0.5-0.5,0.8c-0.1,0.3-0.4,0.4-0.6,0.5c-0.3,0.1-0.5,0.1-0.8,0.1
			c-0.3,0-0.5,0-0.6-0.1c-0.3,0-0.4-0.1-0.6-0.3v1.9h-0.8v-6.3h0.9v0.5c0.3-0.1,0.4-0.3,0.6-0.4c0.3-0.1,0.5-0.1,0.8-0.1
			c0.5,0,1,0.3,1.3,0.6C138,46.4,138.3,46.9,138.3,47.7z M137.5,47.7c0-0.5-0.1-1-0.3-1.3c-0.1-0.3-0.5-0.4-0.9-0.4
			c-0.3,0-0.4,0-0.6,0.1c-0.3,0.1-0.4,0.3-0.6,0.4v2.6c0.3,0.1,0.4,0.1,0.5,0.3c0.1,0.1,0.4,0,0.5,0c0.4,0,0.8-0.1,1-0.4
			C137.4,48.7,137.5,48.3,137.5,47.7z"/>
		<path d="M143.4,47.7c0,0.8-0.1,1.3-0.6,1.8c-0.4,0.4-0.9,0.6-1.5,0.6c-0.6,0-1.2-0.3-1.5-0.6s-0.5-1-0.5-1.8
			c0-0.8,0.3-1.3,0.5-1.8c0.3-0.5,0.9-0.6,1.5-0.6c0.6,0,1.2,0.3,1.5,0.6C143.2,46.4,143.4,47,143.4,47.7z M142.6,47.7
			c0-0.6-0.1-1-0.4-1.3c-0.3-0.3-0.5-0.4-1-0.4c-0.4,0-0.8,0.1-1,0.4c-0.3,0.3-0.4,0.8-0.4,1.3c0,0.6,0.1,1,0.4,1.3
			c0.3,0.3,0.5,0.4,1,0.4c0.4,0,0.8-0.1,1-0.4C142.5,48.7,142.6,48.3,142.6,47.7z"/>
		<path d="M147.5,46.3L147.5,46.3c-0.1,0-0.3,0-0.4,0c-0.1,0-0.3,0-0.4,0c-0.3,0-0.5,0-0.6,0.1c-0.3,0.1-0.4,0.3-0.6,0.4v3.3h-0.8
			v-4.6h0.8v0.6c0.3-0.3,0.6-0.4,0.8-0.5c0.3-0.1,0.5-0.1,0.8-0.1c0.1,0,0.3,0,0.3,0s0.1,0,0.3,0L147.5,46.3L147.5,46.3z"/>
	</g>
	<g>
		<path d="M185.2,48.5c0,0-0.5,0.5-1.4,0.5s-1.5-0.6-1.5-1.5c0-0.9,0.5-1.5,1.5-1.5c0.8,0,1.3,0.5,1.3,0.5l0.5-0.8
			c0,0-0.5-0.6-1.8-0.6c-1.5,0-2.6,1.2-2.6,2.6s1,2.6,2.6,2.6c1.3,0,1.9-0.8,1.9-0.8L185.2,48.5z"/>
		<path d="M178.5,49.7l-0.1,0.3l0,0h0.9v-1.8c0-0.3,0-0.4,0-0.5c-0.3,0.4-0.5,0.8-0.5,1.2C178.7,49.2,178.5,49.5,178.5,49.7"/>
		<path d="M179.3,46.3L179.3,46.3C179.3,46.3,179.3,46.2,179.3,46.3v-0.9h-1.2v3.3l0,0c0.4-0.5,0.6-1.3,1.2-1.7
			c0.3-0.3,0.5-0.5,0.8-0.6c0.3-0.1,0.5-0.3,0.8-0.4v-0.6c0,0-0.1,0-0.3,0C180.1,45.3,179.4,45.6,179.3,46.3"/>
		<polygon points="152.1,43.5 152.1,44.5 154.1,44.5 154.1,50 155.4,50 155.4,44.5 157.6,44.5 157.6,43.5 		"/>
		<path d="M163.5,47.4c0,0.8-0.5,1.5-1.4,1.5c-0.5,0-0.6-0.4-0.6-0.9v-2.7h-1.2v2.9c0,1.3,0.6,1.8,1.5,1.8c0.8,0,1.4-0.4,1.5-0.8
			v0.5h1.2v-4.6h-1.2L163.5,47.4L163.5,47.4z"/>
		<path d="M166.4,46.7c0-0.4,0.4-0.5,0.5-0.5c0.6,0,1.2,0.5,1.2,0.5l0.5-0.9c0,0-0.5-0.5-1.5-0.5c-1,0-1.8,0.5-1.8,1.4
			c0,1.5,2.3,1.4,2.3,2.2c0,0.4-0.4,0.5-0.5,0.5c-0.8,0-1.3-0.5-1.3-0.5l-0.5,0.8c0,0,0.6,0.6,1.8,0.6c1.2,0,1.8-0.6,1.8-1.4
			C168.7,47.2,166.4,47.2,166.4,46.7"/>
		<path d="M170.2,48.2v-1.8h1v-0.9h-1v-1.4h-1v2.3v1.9c0,1.5,1.3,1.8,1.9,1.8c0.3,0,0.4,0,0.4,0l0.4-1h-0.5
			C170.9,49.1,170.2,49,170.2,48.2"/>
		<path d="M174.1,47.3l0.5-1.7c0.1-0.4,0.4-1,0.4-1l0,0c0,0,0.1,0.6,0.3,1l0.5,1.7H174.1z M175.5,43.5h-1.3l-2.3,6.5h1.3l0.5-1.7
			h2.3l0.5,1.7h1.2h0.1l-0.1-0.3L175.5,43.5z"/>
		<path d="M158.1,46.3L158.1,46.3C158.1,46.3,158.1,46.2,158.1,46.3v-0.9h-1.2V50h1.2v-1.8c0-0.4,0-0.5,0.1-0.8c0.3-0.6,0.8-1,1.3-1
			c0.1,0,0.4,0,0.4,0v-1.3c0,0-0.1,0-0.3,0C159,45.3,158.3,45.6,158.1,46.3"/>
	</g>
</g>
</svg>
